<svg width="36" height="36" viewBox="0 0 36 36" fill="none" xmlns="http://www.w3.org/2000/svg">
    <path d="M7.0625 12.1667L22.4917 4.7875C22.6666 4.70378 22.8564 4.65579 23.0501 4.64633C23.2438 4.63687 23.4374 4.66612 23.6196 4.73239C23.8019 4.79866 23.9691 4.90061 24.1114 5.03227C24.2538 5.16392 24.3685 5.32265 24.4488 5.49917L27.4792 12.1667M9.25 15.0833V12.1667M9.25 20.9167V22.375M9.25 28.2083V31.125" stroke="#555555" stroke-width="2" stroke-linecap="round" stroke-linejoin="round"/>
    <path d="M29.6667 12.1667H6.33333C4.7225 12.1667 3.41666 13.4725 3.41666 15.0833V28.2083C3.41666 29.8192 4.7225 31.125 6.33333 31.125H29.6667C31.2775 31.125 32.5833 29.8192 32.5833 28.2083V15.0833C32.5833 13.4725 31.2775 12.1667 29.6667 12.1667Z" stroke="#555555" stroke-width="2" stroke-linecap="round" stroke-linejoin="round"/>
</svg>
